<?xml version="1.0" standalone="no"?>
<!DOCTYPE svg PUBLIC "-//W3C//DTD SVG 20010904//EN"
 "http://www.w3.org/TR/2001/REC-SVG-20010904/DTD/svg10.dtd">
<svg version="1.0" xmlns="http://www.w3.org/2000/svg"
 width="700.000000pt" height="700.000000pt" viewBox="0 0 700.000000 700.000000"
 preserveAspectRatio="xMidYMid meet">
<metadata>
Created by potrace 1.14, written by Peter Selinger 2001-2017
</metadata>
<g transform="translate(0.000000,700.000000) scale(0.100000,-0.100000)"
fill="#000000" stroke="none">
<path d="M5405 6449 c-117 -6 -163 -26 -219 -91 -44 -51 -62 -108 -66 -208 -2
-41 -3 -342 -4 -667 -1 -326 -1 -593 -1 -593 -1 0 -300 297 -665 661 -642 638
-813 799 -869 820 -81 31 -174 12 -244 -50 -176 -158 -2862 -2843 -3122 -3121
-126 -135 -137 -155 -136 -240 2 -69 19 -118 58 -161 64 -71 85 -81 194 -95
109 -15 26 -92 1965 1842 l1204 1202 1127 -1125 c1901 -1895 1914 -1908 1977
-1919 101 -18 166 -5 229 47 84 69 119 193 80 291 -24 63 -95 140 -585 632
l-408 409 0 876 c-1 1196 -3 1299 -35 1361 -20 38 -75 87 -119 105 -34 15 -84
21 -221 28 -22 1 -85 0 -140 -4z"/>
<path d="M2009 3753 l-1480 -1478 6 -640 c5 -627 11 -900 21 -960 15 -95 29
-140 69 -217 45 -89 60 -110 155 -211 81 -87 251 -194 335 -211 74 -14 98 -17
240 -24 198 -9 4108 -9 4295 0 175 9 198 13 275 40 215 75 421 286 494 506 35
109 38 173 46 1072 l6 645 -1480 1478 c-813 812 -1484 1477 -1491 1477 -6 0
-677 -665 -1491 -1477z m2011 -1066 c74 -3 106 -9 140 -27 74 -37 122 -99 135
-175 4 -22 9 -422 10 -890 2 -814 2 -852 -16 -887 -27 -53 -72 -101 -128 -137
l-48 -31 -613 0 -613 0 -48 31 c-56 36 -101 84 -128 137 -18 35 -18 71 -16
882 2 465 6 865 9 889 10 79 67 151 151 190 22 10 88 15 240 18 116 2 219 5
230 6 31 3 589 -2 695 -6z"/>
</g>
</svg>
