<?xml version="1.0" encoding="UTF-8"?>
<svg xmlns="http://www.w3.org/2000/svg" xmlns:xlink="http://www.w3.org/1999/xlink" width="70px" height="70px" viewBox="0 0 120 120" version="1.1">
<g id="surface1">
<path style=" stroke:none;fill-rule:nonzero;fill:#fff;fill-opacity:1;" d="M 90.234375 9.890625 C 89.085938 10.476562 88.265625 11.53125 87.890625 12.867188 C 87.75 13.382812 87.65625 18.140625 87.65625 24.960938 L 87.65625 36.1875 L 74.953125 23.53125 C 61.40625 10.007812 62.015625 10.546875 59.71875 10.546875 C 59.226562 10.546875 58.429688 10.757812 57.9375 10.992188 C 57.445312 11.25 45.117188 23.414062 29.390625 39.1875 C 3.445312 65.15625 1.6875 66.984375 1.453125 67.96875 C 1.195312 69.070312 1.359375 70.523438 1.828125 71.390625 C 2.109375 71.90625 3.632812 73.359375 3.9375 73.359375 C 4.03125 73.382812 4.570312 73.476562 5.15625 73.59375 C 7.476562 74.0625 5.695312 75.679688 34.054688 47.367188 L 60 21.445312 L 85.851562 47.273438 C 104.109375 65.53125 111.9375 73.21875 112.546875 73.476562 C 113.039062 73.664062 113.929688 73.828125 114.539062 73.828125 C 117.726562 73.78125 119.765625 70.359375 118.382812 67.382812 C 118.101562 66.773438 115.101562 63.632812 109.710938 58.242188 L 101.484375 50.039062 L 101.484375 31.570312 C 101.484375 11.601562 101.53125 12.210938 100.242188 10.804688 C 99.164062 9.65625 98.132812 9.375 94.570312 9.375 C 91.617188 9.375 91.171875 9.421875 90.234375 9.890625 Z M 90.234375 9.890625 "/>
<path style=" stroke:none;fill-rule:nonzero;fill:#fff;fill-opacity:1;" d="M 34.5 55.617188 L 9.09375 81.023438 L 9.1875 94.59375 C 9.304688 109.570312 9.28125 109.359375 10.851562 112.5 C 11.953125 114.703125 14.601562 117.328125 16.875 118.453125 C 20.226562 120.070312 17.8125 120 60 120 C 102.1875 120 99.773438 120.070312 103.125 118.453125 C 105.398438 117.328125 108.046875 114.703125 109.148438 112.5 C 110.71875 109.359375 110.695312 109.570312 110.8125 94.59375 L 110.90625 81.023438 L 85.5 55.617188 C 71.554688 41.648438 60.070312 30.234375 60 30.234375 C 59.929688 30.234375 48.445312 41.648438 34.5 55.617188 Z M 71.132812 74.273438 C 72.257812 74.789062 72.984375 75.539062 73.476562 76.6875 C 73.78125 77.4375 73.828125 79.546875 73.828125 92.414062 L 73.828125 107.273438 L 73.289062 108.304688 C 72.914062 108.984375 72.351562 109.570312 71.601562 110.039062 L 70.476562 110.742188 L 49.523438 110.742188 L 48.398438 110.039062 C 47.648438 109.570312 47.085938 108.984375 46.710938 108.304688 L 46.171875 107.273438 L 46.171875 92.414062 C 46.171875 79.546875 46.21875 77.4375 46.523438 76.6875 C 47.015625 75.539062 47.742188 74.789062 48.867188 74.273438 C 49.734375 73.875 50.578125 73.828125 60 73.828125 C 69.421875 73.828125 70.265625 73.875 71.132812 74.273438 Z M 71.132812 74.273438 "/>
</g>
</svg>
