<svg width="81" height="81" viewBox="0 0 81 81" fill="none" xmlns="http://www.w3.org/2000/svg">
<path d="M71.7791 0.505371H27.8951C23.1419 0.505371 19.275 4.37234 19.275 9.12545V28.7166H8.77414C4.02102 28.7166 0.154053 32.5835 0.154053 37.3366V62.4132C0.154053 67.1664 4.02102 71.0333 8.77414 71.0333H23.1888L28.76 79.3901C29.1961 80.0441 29.9302 80.4371 30.7162 80.4371C31.5022 80.4371 32.2363 80.0441 32.6723 79.3901L38.2435 71.0333H52.6582C57.4113 71.0333 61.2783 67.1664 61.2783 62.4132V42.8221H71.7791C76.5322 42.8221 80.3992 38.9552 80.3992 34.2021V9.12545C80.3992 4.37234 76.5322 0.505371 71.7791 0.505371ZM56.5764 62.4132C56.5764 64.5738 54.8187 66.3315 52.6582 66.3315H36.9853C36.1993 66.3315 35.4652 66.7244 35.0292 67.3784L30.7162 73.8479L26.4032 67.3784C25.9671 66.7244 25.233 66.3315 24.447 66.3315H8.77414C6.61363 66.3315 4.85592 64.5738 4.85592 62.4132V37.3366C4.85592 35.1761 6.61363 33.4184 8.77414 33.4184H19.275V34.2021C19.275 35.6126 19.6177 36.9437 20.2208 38.1203H11.9087C10.6104 38.1203 9.55778 39.1729 9.55778 40.4712C9.55778 41.7696 10.6104 42.8221 11.9087 42.8221H42.3099L45.4445 47.524H11.9087C10.6104 47.524 9.55778 48.5766 9.55778 49.8749C9.55778 51.1733 10.6104 52.2259 11.9087 52.2259H49.8371C50.6232 52.2259 51.3572 51.833 51.7931 51.1789L56.5764 44.004V62.4132ZM75.6973 34.2021C75.6973 36.3626 73.9396 38.1203 71.7791 38.1203H56.1062C55.3201 38.1203 54.5861 38.5132 54.1503 39.1672L49.8371 45.6367L45.5239 39.1672C45.0881 38.5132 44.3539 38.1203 43.5679 38.1203H27.8951C25.7345 38.1203 23.9768 36.3626 23.9768 34.2021V9.12545C23.9768 6.96495 25.7345 5.20724 27.8951 5.20724H71.7791C73.9396 5.20724 75.6973 6.96495 75.6973 9.12545V34.2021Z" fill="#71604F"/>
<path d="M49.5237 56.9282H11.9088C10.6105 56.9282 9.55786 57.9808 9.55786 59.2792C9.55786 60.5775 10.6105 61.6301 11.9088 61.6301H49.5237C50.8221 61.6301 51.8746 60.5775 51.8746 59.2792C51.8746 57.9808 50.8221 56.9282 49.5237 56.9282Z" fill="#71604F"/>
<path d="M61.1463 16.8744L54.7886 15.9505L51.9454 10.1893C51.5493 9.38686 50.7321 8.87891 49.8372 8.87891C48.9423 8.87891 48.1251 9.38686 47.7291 10.1893L44.8858 15.9505L38.5281 16.8744C37.6426 17.0029 36.9068 17.6233 36.6303 18.4745C36.3537 19.3255 36.5844 20.2598 37.2251 20.8843L41.8256 25.3685L40.7394 31.7005C40.5882 32.5826 40.9509 33.4739 41.6748 34C42.3986 34.5257 43.3582 34.5953 44.1506 34.179L49.8372 31.1893L55.5237 34.179C55.8677 34.3597 56.2432 34.4491 56.6175 34.4491C57.1049 34.4491 57.5901 34.2977 57.9995 34.0002C58.7234 33.4742 59.0861 32.5827 58.9349 31.7007L57.8487 25.3687L62.4492 20.8845C63.0901 20.2599 63.3208 19.3257 63.0441 18.4746C62.7677 17.6234 62.032 17.0031 61.1463 16.8744ZM53.6818 22.8644C53.1276 23.4045 52.8748 24.1827 53.0057 24.9453L53.4954 27.8005L50.9313 26.4523C50.5887 26.2724 50.2131 26.1822 49.8374 26.1822C49.4617 26.1822 49.0859 26.2722 48.7434 26.4523L46.1793 27.8005L46.6691 24.9453C46.8 24.1827 46.5472 23.4045 45.993 22.8644L43.9187 20.8425L46.7856 20.4259C47.5513 20.3146 48.2132 19.8338 48.5557 19.1399L49.8377 16.5422L51.1197 19.1399C51.4622 19.8338 52.1241 20.3146 52.8898 20.4259L55.7567 20.8425L53.6818 22.8644Z" fill="#71604F"/>
</svg>
