<svg width="98" height="81" viewBox="0 0 98 81" fill="none" xmlns="http://www.w3.org/2000/svg">
<path d="M90.4112 11.9978H69.9487V8.33629C69.9487 4.0184 66.4362 0.505371 62.118 0.505371H36.7919C32.4742 0.505371 28.9612 4.01813 28.9612 8.33629V11.9978H8.49896C4.32107 11.9978 0.922119 15.3965 0.922119 19.5741V72.8605C0.922119 77.0381 4.32107 80.4371 8.49896 80.4371H90.4109C94.5888 80.4371 97.9878 77.0381 97.9878 72.8605V19.5741C97.988 15.3968 94.5894 11.9978 90.4112 11.9978ZM35.5783 8.33629C35.5783 7.66693 36.123 7.12223 36.7921 7.12223H62.1183C62.7874 7.12223 63.3321 7.66693 63.3321 8.33629V11.9978H35.5783V8.33629ZM8.49922 18.6147H90.4112C90.9406 18.6147 91.3712 19.045 91.3712 19.5741V36.9362C81.1182 40.7396 65.653 42.9861 49.4272 42.9861C33.237 42.9861 17.793 40.7473 7.53898 36.9566V19.5741C7.53925 19.045 7.96987 18.6147 8.49922 18.6147ZM90.4112 73.8202H8.49922C7.96987 73.8202 7.53925 73.3898 7.53925 72.8605V43.9668C16.9241 47.0627 29.2629 48.9977 42.7097 49.4826C42.7089 49.521 42.7042 49.558 42.7042 49.5969V51.0561C42.7042 53.7915 44.9295 56.0169 47.6652 56.0169H51.2455C53.9811 56.0169 56.2065 53.7915 56.2065 51.0561V49.5969C56.2065 49.558 56.2012 49.5199 56.201 49.481C69.6562 48.9919 81.9932 47.0513 91.3717 43.9493V72.8607C91.3712 73.3898 90.9406 73.8202 90.4112 73.8202Z" fill="#71604F"/>
</svg>
