<svg width="80" height="81" viewBox="0 0 80 81" fill="none" xmlns="http://www.w3.org/2000/svg">
<path d="M49.2283 15.91C52.3009 13.4279 52.9966 10.7745 53.0389 8.98558C53.1423 4.63351 49.7057 1.44874 49.3133 1.10013C48.3417 0.235866 46.8533 0.322979 45.9888 1.2948C45.1246 2.26663 45.2117 3.75489 46.1835 4.61931C46.2055 4.63898 48.3827 6.67599 48.3306 8.87395C48.3028 10.045 47.6284 11.1481 46.2688 12.2464C43.1961 14.7285 42.5004 17.3818 42.4581 19.1708C42.3546 23.5228 45.7913 26.7076 46.1835 27.0564C46.6333 27.4564 47.1947 27.6534 47.7537 27.6534C48.4026 27.6534 49.0484 27.388 49.5127 26.8658C50.377 25.8939 50.2945 24.4097 49.3227 23.5455C48.7046 22.9835 47.1126 21.119 47.1667 19.2648C47.2009 18.1003 47.8752 17.0028 49.2283 15.91Z" fill="#71604F"/>
<path d="M34.2873 15.91C37.36 13.4279 38.0557 10.7745 38.098 8.98558C38.2013 4.63351 34.7647 1.44874 34.3724 1.10013C33.4009 0.235866 31.9123 0.322979 31.0479 1.2948C30.1836 2.26663 30.2708 3.75489 31.2426 4.61931C31.2646 4.63898 33.4418 6.67599 33.3897 8.87395C33.3619 10.045 32.6874 11.1481 31.3278 12.2464C28.2551 14.7285 27.5595 17.3818 27.5172 19.1708C27.4138 23.5228 30.8504 26.7076 31.2426 27.0564C31.6924 27.4564 32.2538 27.6534 32.8128 27.6534C33.4616 27.6534 34.1075 27.388 34.5718 26.8658C35.436 25.8939 35.3536 24.4097 34.3818 23.5455C33.7637 22.9835 32.1716 21.119 32.2258 19.2648C32.26 18.1003 32.9343 17.0028 34.2873 15.91Z" fill="#71604F"/>
<path d="M67.9992 38.9334H65.2122V37.2064C65.2122 35.906 64.1579 34.8516 62.8573 34.8516H2.75647C1.45602 34.8516 0.401611 35.9058 0.401611 37.2064V49.6346C0.401611 60.6163 6.48001 70.2725 15.6056 75.7276H2.75788C1.45743 75.7276 0.403016 76.7818 0.403016 78.0824C0.403016 79.383 1.45712 80.4373 2.75788 80.4373H62.8575C64.1579 80.4373 65.2123 79.383 65.2123 78.0824C65.2123 76.7818 64.1581 75.7276 62.8575 75.7276H50.0083C55.1976 72.6255 59.4013 68.1654 62.0622 62.8746H67.9993C74.5999 62.8746 79.97 57.5046 79.97 50.9039C79.97 44.3033 74.5998 38.9334 67.9992 38.9334ZM60.5026 49.6346C60.5024 64.0223 48.0782 75.7276 32.8069 75.7276C17.5356 75.7276 5.11134 64.0223 5.11134 49.6346V39.5613H60.5024V49.6346H60.5026ZM67.9992 58.1651H63.947C64.7699 55.4551 65.2122 52.593 65.2122 49.6346V43.6428H67.9992C72.0029 43.6428 75.2603 46.9002 75.2603 50.9039C75.2603 54.9077 72.0029 58.1651 67.9992 58.1651Z" fill="#71604F"/>
<path d="M19.3457 15.91C22.4184 13.4279 23.114 10.7745 23.1563 8.98558C23.2597 4.63351 19.8231 1.44874 19.4308 1.10013C18.4591 0.235866 16.9707 0.322979 16.1063 1.2948C15.242 2.26647 15.3291 3.75489 16.3009 4.61931C16.3229 4.63898 18.5001 6.67599 18.448 8.87395C18.4202 10.045 17.7458 11.1481 16.3862 12.2464C13.3135 14.7285 12.6178 17.3818 12.5755 19.1708C12.4723 23.5227 15.9089 26.7075 16.3011 27.0562C16.7498 27.4553 17.3085 27.6515 17.8652 27.6515C18.5142 27.6515 19.1604 27.3847 19.6257 26.8616C20.49 25.8897 20.4029 24.4015 19.4311 23.5371C19.4091 23.5174 17.2319 21.4804 17.284 19.2824C17.3115 18.1114 17.9859 17.0081 19.3457 15.91Z" fill="#71604F"/>
</svg>
