<svg width="93" height="81" viewBox="0 0 93 81" fill="none" xmlns="http://www.w3.org/2000/svg">
<path d="M46.5461 31.6894C55.1436 31.6894 62.1382 24.6949 62.1382 16.0974C62.1382 7.49992 55.1436 0.505371 46.5461 0.505371C37.9487 0.505371 30.9541 7.49992 30.9541 16.0974C30.9541 24.6949 37.9487 31.6894 46.5461 31.6894ZM46.5461 5.88193C52.179 5.88193 56.7616 10.4646 56.7616 16.0974C56.7616 21.7302 52.179 26.3129 46.5461 26.3129C40.9133 26.3129 36.3307 21.7302 36.3307 16.0974C36.3307 10.4646 40.9133 5.88193 46.5461 5.88193Z" fill="#71604F"/>
<path d="M78.0887 31.6892C83.5239 31.6892 87.9458 27.2673 87.9458 21.8321C87.9458 16.397 83.5239 11.9751 78.0887 11.9751C72.6536 11.9751 68.2317 16.397 68.2317 21.8321C68.2317 27.2673 72.6536 31.6892 78.0887 31.6892ZM78.0887 17.3517C80.5593 17.3517 82.5692 19.3616 82.5692 21.8321C82.5692 24.3027 80.5593 26.3126 78.0887 26.3126C75.6182 26.3126 73.6083 24.3027 73.6083 21.8321C73.6083 19.3616 75.6182 17.3517 78.0887 17.3517Z" fill="#71604F"/>
<path d="M80.2573 37.7827H76.0994C71.1998 37.7827 66.9702 40.6775 65.0429 44.8353C61.0748 40.5036 55.3751 37.7827 49.0516 37.7827H44.0411C37.7176 37.7827 32.0179 40.5036 28.0498 44.8353C26.1223 40.6775 21.8928 37.7827 16.9931 37.7827H12.8352C6.12526 37.7827 0.66626 43.2087 0.66626 49.8782V69.4507C0.66626 72.3461 3.03087 74.7018 5.93744 74.7018H22.3766C22.6523 77.9098 25.3499 80.4368 28.6283 80.4368H64.4644C67.7427 80.4368 70.4403 77.9098 70.7161 74.7018H86.9675C89.9776 74.7018 92.4265 72.2626 92.4265 69.2643V49.8782C92.4263 43.2087 86.9673 37.7827 80.2573 37.7827ZM6.04282 49.8782C6.04282 46.1734 9.0899 43.1593 12.8352 43.1593H16.9931C20.7384 43.1593 23.7855 46.1734 23.7855 49.8782V51.7189C21.9777 56.4259 22.3517 59.2469 22.3517 69.3252H6.04282V49.8782ZM65.3642 74.1604C65.3642 74.6566 64.9606 75.0602 64.4644 75.0602H28.6282C28.1319 75.0602 27.7283 74.6564 27.7283 74.1604V59.4721C27.7283 50.4771 35.0462 43.1593 44.041 43.1593H49.0514C58.0464 43.1593 65.3642 50.4771 65.3642 59.4719V74.1604ZM87.0497 69.2643C87.0497 69.3569 88.0519 69.3252 70.7408 69.3252C70.7408 59.1723 71.112 56.4182 69.3071 51.7189V49.8782C69.3071 46.1734 72.3541 43.1593 76.0994 43.1593H80.2573C84.0026 43.1593 87.0497 46.1734 87.0497 49.8782V69.2643Z" fill="#71604F"/>
<path d="M15.0035 31.6892C20.4387 31.6892 24.8605 27.2673 24.8605 21.8321C24.8605 16.397 20.4387 11.9751 15.0035 11.9751C9.56835 11.9751 5.14648 16.397 5.14648 21.8321C5.14648 27.2673 9.56835 31.6892 15.0035 31.6892ZM15.0035 17.3517C17.474 17.3517 19.484 19.3616 19.484 21.8321C19.484 24.3027 17.474 26.3126 15.0035 26.3126C12.533 26.3126 10.523 24.3027 10.523 21.8321C10.523 19.3616 12.533 17.3517 15.0035 17.3517Z" fill="#71604F"/>
</svg>
