<svg width="44" height="46" viewBox="0 0 44 46" fill="none" xmlns="http://www.w3.org/2000/svg">
<g clip-path="url(#clip0_74589_47)">
<path d="M43.3206 4.4923C42.7832 3.81675 41.9782 3.44482 41.0537 3.44482C40.5512 3.44482 40.0187 3.5535 39.4716 3.76845L2.22639 18.381C0.249825 19.1563 -0.0163799 20.3197 0.000740444 20.9441C0.0178608 21.5686 0.347847 22.7148 2.36402 23.3741C2.37611 23.3779 2.38819 23.3817 2.40028 23.3851L10.1259 25.6574L14.304 37.9366C14.8736 39.6107 16.1523 40.6505 17.6414 40.6505C18.5804 40.6505 19.5039 40.2462 20.3122 39.4816L25.0908 34.9595L32.0219 40.6954C32.0225 40.6961 32.0235 40.6964 32.0242 40.6971L32.09 40.7516C32.096 40.7565 32.1024 40.7616 32.1085 40.7665C32.8789 41.3806 33.7198 41.7049 34.5412 41.7053H34.5416C36.1465 41.7053 37.4245 40.4842 37.7968 38.5949L43.8994 7.62472C44.1444 6.38162 43.939 5.26928 43.3206 4.4923ZM12.7104 25.2258L27.6155 17.3998L18.3346 27.5354C18.1826 27.7013 18.0748 27.9045 18.0218 28.1257L16.2322 35.576L12.7104 25.2258ZM18.5656 37.5323C18.5038 37.5906 18.4417 37.6427 18.3796 37.6906L20.04 30.7792L23.0602 33.2789L18.5656 37.5323ZM41.3726 7.09857L35.27 38.0691C35.2113 38.3655 35.0236 39.0552 34.5412 39.0552C34.3029 39.0552 34.0035 38.9217 33.697 38.6791L25.8431 32.1797C25.8421 32.1786 25.8407 32.1776 25.8394 32.1769L21.1662 28.3092L34.5876 13.6518C35.0173 13.1826 35.0562 12.4639 34.6799 11.9485C34.3032 11.433 33.6208 11.2709 33.0625 11.5641L10.988 23.1547L3.15727 20.852L40.391 6.24396C40.7056 6.12044 40.9251 6.09456 41.0537 6.09456C41.1326 6.09456 41.2729 6.10422 41.3249 6.17012C41.3934 6.25603 41.4807 6.54895 41.3726 7.09857Z" fill="#71604F"/>
</g>
<defs>
<clipPath id="clip0_74589_47">
<rect width="44" height="45.2222" fill="white"/>
</clipPath>
</defs>
</svg>
